<svg width="250" height="250" viewBox="0 0 250 250" fill="none" xmlns="http://www.w3.org/2000/svg">
<rect width="250" height="250" fill="#072C4F"/>
<circle cx="56.5" cy="187.5" r="32.5" fill="url(#paint0_linear)"/>
<path d="M143 31C137.222 31 131.5 31.957 126.162 33.8165C120.824 35.6759 115.973 38.4013 111.887 41.837C107.802 45.2728 104.561 49.3517 102.349 53.8407C100.138 58.3298 99 63.1411 99 68L143 68V31Z" fill="url(#paint1_linear)"/>
<path d="M230 68C230 63.1411 228.862 58.3298 226.651 53.8407C224.439 49.3517 221.198 45.2728 217.113 41.837C213.027 38.4013 208.176 35.6759 202.838 33.8165C197.5 31.957 191.778 31 186 31L186 68H230Z" fill="url(#paint2_linear)"/>
<path d="M99 107C99 111.859 100.138 116.67 102.349 121.159C104.561 125.648 107.802 129.727 111.887 133.163C115.973 136.599 120.824 139.324 126.162 141.184C131.5 143.043 137.222 144 143 144L143 107H99Z" fill="url(#paint3_linear)"/>
<path d="M186 220C191.778 220 197.5 219.043 202.838 217.184C208.176 215.324 213.027 212.599 217.113 209.163C221.198 205.727 224.439 201.648 226.651 197.159C228.862 192.67 230 187.859 230 183H186V220Z" fill="url(#paint4_linear)"/>
<path d="M104 183C104 187.859 105.009 192.67 106.969 197.159C108.929 201.648 111.801 205.727 115.423 209.163C119.044 212.599 123.344 215.324 128.075 217.184C132.807 219.043 137.878 220 143 220L143 183H104Z" fill="url(#paint5_linear)"/>
<path d="M186 107H230V144H186V107Z" fill="url(#paint6_linear)"/>
<path d="M143 107H186V144H143L143 107Z" fill="url(#paint7_linear)"/>
<path d="M186 68H230V107H186L186 68Z" fill="url(#paint8_linear)"/>
<path d="M99 68L143 68L143 107H99L99 68Z" fill="url(#paint9_linear)"/>
<path d="M186 144H230V183H186V144Z" fill="url(#paint10_linear)"/>
<path d="M143 183H186V220H143L143 183Z" fill="url(#paint11_linear)"/>
<path d="M143 31L186 31L186 68L143 68V31Z" fill="url(#paint12_linear)"/>
<defs>
<linearGradient id="paint0_linear" x1="56.5" y1="155" x2="56.5" y2="220" gradientUnits="userSpaceOnUse">
<stop stop-color="#E9982E"/>
<stop offset="1" stop-color="#DAA849"/>
</linearGradient>
<linearGradient id="paint1_linear" x1="123" y1="43.5" x2="217.5" y2="233.5" gradientUnits="userSpaceOnUse">
<stop stop-color="#FFA800"/>
<stop offset="0.931043" stop-color="#EAE5B1"/>
<stop offset="1" stop-color="#DDC6B6" stop-opacity="0"/>
</linearGradient>
<linearGradient id="paint2_linear" x1="123" y1="43.5" x2="217.5" y2="233.5" gradientUnits="userSpaceOnUse">
<stop stop-color="#FFA800"/>
<stop offset="0.931043" stop-color="#EAE5B1"/>
<stop offset="1" stop-color="#DDC6B6" stop-opacity="0"/>
</linearGradient>
<linearGradient id="paint3_linear" x1="123" y1="43.5" x2="217.5" y2="233.5" gradientUnits="userSpaceOnUse">
<stop stop-color="#FFA800"/>
<stop offset="0.931043" stop-color="#EAE5B1"/>
<stop offset="1" stop-color="#DDC6B6" stop-opacity="0"/>
</linearGradient>
<linearGradient id="paint4_linear" x1="123" y1="43.5" x2="217.5" y2="233.5" gradientUnits="userSpaceOnUse">
<stop stop-color="#FFA800"/>
<stop offset="0.931043" stop-color="#EAE5B1"/>
<stop offset="1" stop-color="#DDC6B6" stop-opacity="0"/>
</linearGradient>
<linearGradient id="paint5_linear" x1="123" y1="43.5" x2="217.5" y2="233.5" gradientUnits="userSpaceOnUse">
<stop stop-color="#FFA800"/>
<stop offset="0.931043" stop-color="#EAE5B1"/>
<stop offset="1" stop-color="#DDC6B6" stop-opacity="0"/>
</linearGradient>
<linearGradient id="paint6_linear" x1="123" y1="43.5" x2="217.5" y2="233.5" gradientUnits="userSpaceOnUse">
<stop stop-color="#FFA800"/>
<stop offset="0.931043" stop-color="#EAE5B1"/>
<stop offset="1" stop-color="#DDC6B6" stop-opacity="0"/>
</linearGradient>
<linearGradient id="paint7_linear" x1="123" y1="43.5" x2="217.5" y2="233.5" gradientUnits="userSpaceOnUse">
<stop stop-color="#FFA800"/>
<stop offset="0.931043" stop-color="#EAE5B1"/>
<stop offset="1" stop-color="#DDC6B6" stop-opacity="0"/>
</linearGradient>
<linearGradient id="paint8_linear" x1="123" y1="43.5" x2="217.5" y2="233.5" gradientUnits="userSpaceOnUse">
<stop stop-color="#FFA800"/>
<stop offset="0.931043" stop-color="#EAE5B1"/>
<stop offset="1" stop-color="#DDC6B6" stop-opacity="0"/>
</linearGradient>
<linearGradient id="paint9_linear" x1="123" y1="43.5" x2="217.5" y2="233.5" gradientUnits="userSpaceOnUse">
<stop stop-color="#FFA800"/>
<stop offset="0.931043" stop-color="#EAE5B1"/>
<stop offset="1" stop-color="#DDC6B6" stop-opacity="0"/>
</linearGradient>
<linearGradient id="paint10_linear" x1="123" y1="43.5" x2="217.5" y2="233.5" gradientUnits="userSpaceOnUse">
<stop stop-color="#FFA800"/>
<stop offset="0.931043" stop-color="#EAE5B1"/>
<stop offset="1" stop-color="#DDC6B6" stop-opacity="0"/>
</linearGradient>
<linearGradient id="paint11_linear" x1="123" y1="43.5" x2="217.5" y2="233.5" gradientUnits="userSpaceOnUse">
<stop stop-color="#FFA800"/>
<stop offset="0.931043" stop-color="#EAE5B1"/>
<stop offset="1" stop-color="#DDC6B6" stop-opacity="0"/>
</linearGradient>
<linearGradient id="paint12_linear" x1="123" y1="43.5" x2="217.5" y2="233.5" gradientUnits="userSpaceOnUse">
<stop stop-color="#FFA800"/>
<stop offset="0.931043" stop-color="#EAE5B1"/>
<stop offset="1" stop-color="#DDC6B6" stop-opacity="0"/>
</linearGradient>
</defs>
</svg>
